<svg xmlns="http://www.w3.org/2000/svg" width="360" height="230" viewBox="0 0 360 230"><rect width="360" height="230" fill="#fbf1d6"/><circle cx="324" cy="22" r="45" fill="#fffef9" opacity=".4"/><ellipse cx="180" cy="211" rx="145" ry="7" fill="#45483e" opacity=".07"/><rect x="169" y="46" width="143" height="99" rx="8" fill="#fffef9" stroke="#45483e" stroke-width="2"/><rect x="176" y="53" width="129" height="78" rx="3" fill="#dcebe7" stroke="#45483e" stroke-width="2"/><path d="M240.5 145v15m-25 0h50" fill="none" stroke="#45483e" stroke-width="3" stroke-linecap="round" stroke-linejoin="round"/><text x="201" y="86" fill="#45483e" font-family="Arial,sans-serif" font-size="18" font-weight="600">½ + ¼ = ?</text><path d="M198 107h70" fill="none" stroke="#cdb46c" stroke-width="4" stroke-linecap="round" stroke-linejoin="round"/><rect x="58" y="166" width="270" height="13" rx="3" fill="#d2bd90" stroke="#45483e" stroke-width="2"/><g transform="translate(104 130) scale(0.85)"><circle cx="0" cy="-35" r="13" fill="#e7bd9d" stroke="#45483e" stroke-width="2"/><path d="M-10 -45 Q0 -59 12 -43" fill="none" stroke="#45483e" stroke-width="6" stroke-linecap="round" stroke-linejoin="round"/><rect x="-20" y="-18" width="40" height="54" rx="12" fill="#a5bfad" stroke="#45483e" stroke-width="2"/><path d="M-11 36v26 M11 36v26 M-19 -4l-17 27 M19 -4l17 27" fill="none" stroke="#45483e" stroke-width="7" stroke-linecap="round" stroke-linejoin="round"/></g><path d="M178 160q-23 -12 -45 -5v39q24 -6 45 5q20 -11 44 -5v-39q-23 -7 -44 5Z" fill="none" stroke="#45483e" stroke-width="3" stroke-linecap="round" stroke-linejoin="round"/><path d="M178 160v39" fill="none" stroke="#45483e" stroke-width="3" stroke-linecap="round" stroke-linejoin="round"/><rect x="28" y="25" width="112" height="34" rx="8" fill="#fffef9" stroke="#45483e" stroke-width="2"/><text x="42" y="47" fill="#45483e" font-family="Arial,sans-serif" font-size="11" font-weight="600">Coba langkah ini…</text></svg>